<mxfile host="Electron" modified="2023-10-26T21:09:28.638Z" agent="Mozilla/5.0 (Windows NT 10.0; Win64; x64) AppleWebKit/537.36 (KHTML, like Gecko) draw.io/22.0.3 Chrome/114.0.5735.289 Electron/25.8.4 Safari/537.36" etag="XfVwl2kmWLurQWfdeUfO" version="22.0.3" type="device">
  <diagram name="Page-1" id="xGVInMzam0OmmlcWREwX">
    <mxGraphModel dx="1418" dy="820" grid="1" gridSize="10" guides="1" tooltips="1" connect="1" arrows="1" fold="1" page="1" pageScale="1" pageWidth="827" pageHeight="1169" math="0" shadow="0">
      <root>
        <mxCell id="0" />
        <mxCell id="1" parent="0" />
        <mxCell id="bsmOm8ru0FUyZOa75I3S-1" value="" style="rounded=0;whiteSpace=wrap;html=1;fillColor=none;" parent="1" vertex="1">
          <mxGeometry x="155" y="65" width="565" height="440" as="geometry" />
        </mxCell>
        <mxCell id="bsmOm8ru0FUyZOa75I3S-11" value="" style="rounded=0;whiteSpace=wrap;html=1;" parent="1" vertex="1">
          <mxGeometry x="203" y="210" width="421" height="230" as="geometry" />
        </mxCell>
        <mxCell id="bsmOm8ru0FUyZOa75I3S-3" value="&lt;font style=&quot;font-size: 65px;&quot;&gt;leBaie&lt;/font&gt;" style="text;html=1;strokeColor=none;fillColor=none;align=center;verticalAlign=middle;whiteSpace=wrap;rounded=0;" parent="1" vertex="1">
          <mxGeometry x="135" y="110" width="580" height="30" as="geometry" />
        </mxCell>
        <mxCell id="bsmOm8ru0FUyZOa75I3S-5" value="&lt;font style=&quot;font-size: 20px;&quot;&gt;Login Page&lt;/font&gt;" style="text;html=1;strokeColor=none;fillColor=none;align=center;verticalAlign=middle;whiteSpace=wrap;rounded=0;fontSize=14;" parent="1" vertex="1">
          <mxGeometry x="290" y="160" width="270" height="30" as="geometry" />
        </mxCell>
        <mxCell id="bsmOm8ru0FUyZOa75I3S-6" value="" style="rounded=0;whiteSpace=wrap;html=1;" parent="1" vertex="1">
          <mxGeometry x="309" y="240" width="270" height="30" as="geometry" />
        </mxCell>
        <mxCell id="bsmOm8ru0FUyZOa75I3S-7" value="Username:" style="text;html=1;strokeColor=none;fillColor=none;align=center;verticalAlign=middle;whiteSpace=wrap;rounded=0;" parent="1" vertex="1">
          <mxGeometry x="229" y="240" width="70" height="30" as="geometry" />
        </mxCell>
        <mxCell id="bsmOm8ru0FUyZOa75I3S-9" value="" style="rounded=0;whiteSpace=wrap;html=1;" parent="1" vertex="1">
          <mxGeometry x="309" y="300" width="270" height="30" as="geometry" />
        </mxCell>
        <mxCell id="bsmOm8ru0FUyZOa75I3S-10" value="Password:" style="text;html=1;strokeColor=none;fillColor=none;align=center;verticalAlign=middle;whiteSpace=wrap;rounded=0;" parent="1" vertex="1">
          <mxGeometry x="234" y="300" width="60" height="30" as="geometry" />
        </mxCell>
        <mxCell id="bsmOm8ru0FUyZOa75I3S-12" value="&lt;span style=&quot;font-size: 14px;&quot;&gt;&lt;u&gt;&amp;nbsp;continue as guest&lt;/u&gt;&lt;/span&gt;" style="text;html=1;strokeColor=none;fillColor=none;align=center;verticalAlign=middle;whiteSpace=wrap;rounded=0;" parent="1" vertex="1">
          <mxGeometry x="379" y="370" width="130" height="30" as="geometry" />
        </mxCell>
        <mxCell id="lIhWAH00wDeqxBdj9BPZ-2" value="" style="endArrow=classic;html=1;rounded=0;exitX=1;exitY=0.5;exitDx=0;exitDy=0;" parent="1" source="lIhWAH00wDeqxBdj9BPZ-3" edge="1">
          <mxGeometry width="50" height="50" relative="1" as="geometry">
            <mxPoint x="170" y="510" as="sourcePoint" />
            <mxPoint x="300" y="380" as="targetPoint" />
          </mxGeometry>
        </mxCell>
        <mxCell id="lIhWAH00wDeqxBdj9BPZ-3" value="input: password, validation: maxlength=20 characters,&amp;nbsp;presence check " style="text;html=1;strokeColor=none;fillColor=none;align=center;verticalAlign=middle;whiteSpace=wrap;rounded=0;" parent="1" vertex="1">
          <mxGeometry x="40" y="450" width="95" height="95" as="geometry" />
        </mxCell>
        <mxCell id="lIhWAH00wDeqxBdj9BPZ-4" value="&lt;font style=&quot;font-size: 15px;&quot;&gt;Uses input validation; max length 25 characters, presence check&lt;/font&gt;" style="text;html=1;strokeColor=none;fillColor=none;align=center;verticalAlign=middle;whiteSpace=wrap;rounded=0;" parent="1" vertex="1">
          <mxGeometry x="60" y="140" width="60" height="30" as="geometry" />
        </mxCell>
        <mxCell id="lIhWAH00wDeqxBdj9BPZ-5" value="" style="endArrow=classic;html=1;rounded=0;exitX=1;exitY=0.5;exitDx=0;exitDy=0;entryX=1;entryY=0;entryDx=0;entryDy=0;" parent="1" source="lIhWAH00wDeqxBdj9BPZ-4" target="bsmOm8ru0FUyZOa75I3S-7" edge="1">
          <mxGeometry width="50" height="50" relative="1" as="geometry">
            <mxPoint x="160" y="160" as="sourcePoint" />
            <mxPoint x="320" y="260" as="targetPoint" />
          </mxGeometry>
        </mxCell>
        <mxCell id="lIhWAH00wDeqxBdj9BPZ-7" value="Login" style="rounded=0;whiteSpace=wrap;html=1;" parent="1" vertex="1">
          <mxGeometry x="369" y="340" width="150" height="20" as="geometry" />
        </mxCell>
        <mxCell id="lIhWAH00wDeqxBdj9BPZ-8" value="" style="endArrow=classic;html=1;rounded=0;entryX=0;entryY=1;entryDx=0;entryDy=0;" parent="1" target="lIhWAH00wDeqxBdj9BPZ-7" edge="1">
          <mxGeometry width="50" height="50" relative="1" as="geometry">
            <mxPoint x="290" y="550" as="sourcePoint" />
            <mxPoint x="400" y="400" as="targetPoint" />
          </mxGeometry>
        </mxCell>
        <mxCell id="lIhWAH00wDeqxBdj9BPZ-9" value="button to invoke login process that checks inputs against values stored in my sql database&amp;nbsp;" style="text;html=1;strokeColor=none;fillColor=none;align=center;verticalAlign=middle;whiteSpace=wrap;rounded=0;" parent="1" vertex="1">
          <mxGeometry x="234" y="600" width="60" height="30" as="geometry" />
        </mxCell>
        <mxCell id="lIhWAH00wDeqxBdj9BPZ-10" value="" style="endArrow=classic;html=1;rounded=0;entryX=1;entryY=0.5;entryDx=0;entryDy=0;exitX=0;exitY=0.75;exitDx=0;exitDy=0;" parent="1" source="lIhWAH00wDeqxBdj9BPZ-11" target="bsmOm8ru0FUyZOa75I3S-12" edge="1">
          <mxGeometry width="50" height="50" relative="1" as="geometry">
            <mxPoint x="460" y="570" as="sourcePoint" />
            <mxPoint x="470" y="450" as="targetPoint" />
          </mxGeometry>
        </mxCell>
        <mxCell id="lIhWAH00wDeqxBdj9BPZ-11" value="internal hyperlink to homepage" style="text;html=1;strokeColor=none;fillColor=none;align=center;verticalAlign=middle;whiteSpace=wrap;rounded=0;" parent="1" vertex="1">
          <mxGeometry x="740" y="370" width="60" height="30" as="geometry" />
        </mxCell>
        <mxCell id="PFrBMIMG7p-yntXNikVz-2" value="&lt;span style=&quot;font-size: 14px;&quot;&gt;&lt;u&gt;create account&lt;/u&gt;&lt;/span&gt;" style="text;html=1;strokeColor=none;fillColor=none;align=center;verticalAlign=middle;whiteSpace=wrap;rounded=0;" parent="1" vertex="1">
          <mxGeometry x="379" y="400" width="130" height="30" as="geometry" />
        </mxCell>
        <mxCell id="PFrBMIMG7p-yntXNikVz-3" value="" style="endArrow=classic;html=1;rounded=0;entryX=0.5;entryY=1;entryDx=0;entryDy=0;" parent="1" target="PFrBMIMG7p-yntXNikVz-2" edge="1">
          <mxGeometry width="50" height="50" relative="1" as="geometry">
            <mxPoint x="480" y="590" as="sourcePoint" />
            <mxPoint x="530" y="540" as="targetPoint" />
          </mxGeometry>
        </mxCell>
        <mxCell id="PFrBMIMG7p-yntXNikVz-4" value="internal hyperlink that takes you to the registration page" style="text;html=1;strokeColor=none;fillColor=none;align=center;verticalAlign=middle;whiteSpace=wrap;rounded=0;" parent="1" vertex="1">
          <mxGeometry x="459" y="620" width="60" height="30" as="geometry" />
        </mxCell>
        <mxCell id="PFrBMIMG7p-yntXNikVz-5" value="" style="endArrow=classic;html=1;rounded=0;entryX=0.953;entryY=1.35;entryDx=0;entryDy=0;entryPerimeter=0;" parent="1" target="lIhWAH00wDeqxBdj9BPZ-7" edge="1">
          <mxGeometry width="50" height="50" relative="1" as="geometry">
            <mxPoint x="720" y="610" as="sourcePoint" />
            <mxPoint x="770" y="560" as="targetPoint" />
          </mxGeometry>
        </mxCell>
        <mxCell id="PFrBMIMG7p-yntXNikVz-6" value="will take to registered home&amp;nbsp; page if correct details entered" style="text;html=1;strokeColor=none;fillColor=none;align=center;verticalAlign=middle;whiteSpace=wrap;rounded=0;" parent="1" vertex="1">
          <mxGeometry x="700" y="630" width="60" height="30" as="geometry" />
        </mxCell>
      </root>
    </mxGraphModel>
  </diagram>
</mxfile>
